HIERARCHY
ROOT Hips
{
	OFFSET 0.000000 0.000000 0.000000
	CHANNELS 6 Xposition Yposition Zposition Xrotation Yrotation Zrotation
	JOINT LeftHipJoint
	{
		OFFSET 0.100000 0.000000 0.000000
		CHANNELS 6 Xposition Yposition Zposition Xrotation Yrotation Zrotation
		JOINT LeftUpLeg
		{
			OFFSET 0.107972 0.000000 0.000000
			CHANNELS 6 Xposition Yposition Zposition Xrotation Yrotation Zrotation
			JOINT LeftLeg
			{
				OFFSET 0.000000 0.000000 -0.351231
				CHANNELS 6 Xposition Yposition Zposition Xrotation Yrotation Zrotation
				JOINT LeftFoot
				{
					OFFSET 0.000000 0.000000 -0.469094
					CHANNELS 6 Xposition Yposition Zposition Xrotation Yrotation Zrotation
					End Site
					{
						OFFSET 0.000000 -0.100000 0.000000
					}
				}
			}
		}
	}
	JOINT LowerBack
	{
		OFFSET 0.000000 0.000000 0.100000
		CHANNELS 6 Xposition Yposition Zposition Xrotation Yrotation Zrotation
		JOINT Spine
		{
			OFFSET 0.000000 0.000000 0.194444
			CHANNELS 6 Xposition Yposition Zposition Xrotation Yrotation Zrotation
			JOINT Spine1
			{
				OFFSET 0.000000 0.000000 0.227222
				CHANNELS 6 Xposition Yposition Zposition Xrotation Yrotation Zrotation
				JOINT LeftShoulder
				{
					OFFSET 0.100000 0.000000 0.000000
					CHANNELS 6 Xposition Yposition Zposition Xrotation Yrotation Zrotation
					JOINT LeftArm
					{
						OFFSET 0.123584 0.000000 0.000000
						CHANNELS 6 Xposition Yposition Zposition Xrotation Yrotation Zrotation
						JOINT LeftForeArm
						{
							OFFSET 0.229562 0.000000 0.000000
							CHANNELS 6 Xposition Yposition Zposition Xrotation Yrotation Zrotation
							JOINT LeftHand
							{
								OFFSET 0.160834 0.000000 0.000000
								CHANNELS 6 Xposition Yposition Zposition Xrotation Yrotation Zrotation
								End Site
								{
									OFFSET 0.100000 0.000000 0.000000
								}
							}
						}
					}
				}
				JOINT Neck
				{
					OFFSET 0.000000 0.000000 0.100000
					CHANNELS 6 Xposition Yposition Zposition Xrotation Yrotation Zrotation
					JOINT Neck1
					{
						OFFSET 0.000000 0.000000 0.161555
						CHANNELS 6 Xposition Yposition Zposition Xrotation Yrotation Zrotation
						End Site
						{
							OFFSET 0.000000 0.000000 0.081267
						}
					}
				}
				JOINT RightShoulder
				{
					OFFSET -0.100000 0.000000 0.000000
					CHANNELS 6 Xposition Yposition Zposition Xrotation Yrotation Zrotation
					JOINT RightArm
					{
						OFFSET -0.123584 0.000000 0.000000
						CHANNELS 6 Xposition Yposition Zposition Xrotation Yrotation Zrotation
						JOINT RightForeArm
						{
							OFFSET -0.229562 0.000000 0.000000
							CHANNELS 6 Xposition Yposition Zposition Xrotation Yrotation Zrotation
							JOINT RightHand
							{
								OFFSET -0.160834 0.000000 0.000000
								CHANNELS 6 Xposition Yposition Zposition Xrotation Yrotation Zrotation
								End Site
								{
									OFFSET -0.100000 0.000000 0.000000
								}
							}
						}
					}
				}
			}
		}
	}
	JOINT RightHipJoint
	{
		OFFSET -0.100000 0.000000 0.000000
		CHANNELS 6 Xposition Yposition Zposition Xrotation Yrotation Zrotation
		JOINT RightUpLeg
		{
			OFFSET -0.107972 0.000000 0.000000
			CHANNELS 6 Xposition Yposition Zposition Xrotation Yrotation Zrotation
			JOINT RightLeg
			{
				OFFSET 0.000000 0.000000 -0.351231
				CHANNELS 6 Xposition Yposition Zposition Xrotation Yrotation Zrotation
				JOINT RightFoot
				{
					OFFSET 0.000000 0.000000 -0.469094
					CHANNELS 6 Xposition Yposition Zposition Xrotation Yrotation Zrotation
					End Site
					{
						OFFSET 0.000000 -0.100000 0.000000
					}
				}
			}
		}
	}
}
MOTION
Frames: 9
Frame Time: 0.041667
0.000000 0.000000 0.000000 13.449028 -1.991165 -0.000003 0.100000 0.000000 -0.000000 0.000000 0.000000 -0.000000 0.107972 0.000000 -0.000000 -82.268946 -4.656506 6.829368 0.000000 0.000000 -0.351231 113.141674 15.514155 -2.567392 -0.000000 -0.000000 -0.469094 0.000002 -0.000001 -0.000000 0.000000 -0.000000 0.100000 0.000000 0.000000 -0.000000 0.000000 -0.000000 0.194444 3.469652 -30.836344 -0.143371 0.000000 0.000000 0.227222 0.000001 0.000002 16.780107 0.100000 0.000000 0.000000 0.000002 0.000005 -0.000002 0.123584 0.000000 0.000000 -61.910221 29.610298 11.405224 0.229562 -0.000000 -0.000000 0.000004 -0.000001 -33.079655 0.160834 -0.000000 0.000000 0.000002 -0.000001 -0.000001 0.000000 0.000000 0.100000 0.000000 0.000001 -0.000000 0.000000 0.000000 0.161555 55.966488 7.825771 15.116928 -0.100000 0.000000 0.000000 0.000002 0.000005 -0.000001 -0.123584 0.000000 0.000000 -30.189013 4.759798 61.784716 -0.229562 -0.000000 0.000000 -0.000000 0.000000 31.191671 -0.160834 -0.000000 0.000000 -0.000000 -0.000001 -0.000001 -0.100000 -0.000000 0.000000 0.000000 0.000000 -0.000000 -0.107972 0.000000 0.000000 -42.184481 13.377274 -4.336423 -0.000000 -0.000000 -0.351231 66.264180 10.522391 12.737544 -0.000000 0.000000 -0.469094 -0.000002 0.000002 0.000000 
0.000000 0.000000 0.000000 13.583921 -2.029897 -0.000001 0.100000 -0.000000 0.000000 0.000001 0.000000 0.000000 0.107972 0.000000 -0.000000 -81.958875 -4.798741 6.800439 0.000000 0.000000 -0.351231 113.143941 15.374411 -2.766278 -0.000000 0.000000 -0.469094 0.000001 0.000003 0.000001 0.000000 0.000000 0.100000 0.000000 0.000000 -0.000000 0.000000 0.000000 0.194444 3.652981 -30.756898 -0.153800 0.000000 -0.000000 0.227222 0.000001 0.000006 16.738043 0.100000 -0.000000 0.000000 0.000000 -0.000000 0.000000 0.123584 0.000000 -0.000000 -61.482754 29.293223 11.238147 0.229562 -0.000000 -0.000000 0.000005 -0.000002 -33.594736 0.160834 0.000000 0.000000 -0.000002 0.000001 0.000002 0.000000 -0.000000 0.100000 -0.000000 -0.000002 0.000001 -0.000000 0.000000 0.161555 55.998535 7.581707 15.722938 -0.100000 -0.000000 0.000000 0.000000 -0.000000 -0.000000 -0.123584 -0.000000 0.000000 -30.470061 4.737620 61.971618 -0.229562 -0.000000 0.000000 0.000003 -0.000001 31.131128 -0.160834 0.000000 0.000000 0.000000 0.000000 0.000000 -0.100000 0.000000 -0.000000 0.000001 0.000000 0.000000 -0.107972 0.000000 0.000000 -41.479742 13.972837 -4.233824 -0.000000 0.000000 -0.351231 65.521499 9.678457 13.183128 -0.000000 -0.000000 -0.469094 -0.000002 0.000000 0.000000 
0.000000 0.000000 0.000000 13.696099 -2.071293 -0.000000 0.100000 0.000000 0.000000 0.000001 -0.000000 -0.000000 0.107972 0.000000 -0.000000 -81.639236 -4.955984 6.760786 -0.000000 0.000000 -0.351231 113.124817 15.228511 -2.973928 -0.000000 -0.000000 -0.469094 0.000000 -0.000002 -0.000000 -0.000000 0.000000 0.100000 -0.000000 -0.000000 -0.000000 0.000000 0.000000 0.194444 3.845064 -30.675623 -0.165100 -0.000000 0.000000 0.227222 0.000001 0.000006 16.689724 0.100000 -0.000000 0.000000 -0.000002 -0.000000 -0.000001 0.123584 0.000000 0.000000 -60.936257 28.960467 10.995083 0.229562 -0.000000 0.000000 0.000000 0.000001 -34.166799 0.160834 0.000000 0.000000 0.000003 0.000002 0.000000 0.000000 0.000000 0.100000 -0.000003 -0.000002 0.000001 0.000000 0.000000 0.161555 56.141570 7.349157 16.358802 -0.100000 0.000000 -0.000000 -0.000002 -0.000000 -0.000000 -0.123584 -0.000000 0.000000 -30.724558 4.744263 62.198687 -0.229562 -0.000000 0.000000 0.000001 0.000002 31.090283 -0.160834 0.000000 0.000000 0.000003 0.000002 -0.000002 -0.100000 0.000000 -0.000000 0.000001 -0.000000 -0.000000 -0.107972 0.000000 0.000000 -40.807409 14.539555 -4.124531 0.000000 0.000000 -0.351231 64.852503 8.853453 13.579407 -0.000000 0.000000 -0.469094 -0.000000 0.000000 0.000000 
0.000000 0.000000 0.000000 13.773625 -2.122367 -0.000000 0.100000 0.000000 -0.000000 0.000001 0.000000 0.000000 0.107972 0.000000 -0.000000 -81.307146 -5.122429 6.728962 -0.000000 0.000000 -0.351231 113.070005 15.080547 -3.174257 0.000000 -0.000000 -0.469094 0.000002 -0.000003 -0.000003 -0.000000 -0.000000 0.100000 0.000001 0.000000 -0.000000 0.000000 -0.000000 0.194444 4.049380 -30.591482 -0.178077 0.000000 0.000000 0.227222 -0.000000 -0.000002 16.636393 0.100000 -0.000000 0.000000 0.000004 0.000001 -0.000002 0.123584 0.000000 -0.000000 -60.206137 28.625219 10.647033 0.229562 -0.000000 0.000000 -0.000002 -0.000000 -34.790897 0.160834 0.000000 0.000000 0.000000 -0.000002 0.000002 -0.000000 -0.000000 0.100000 0.000000 -0.000000 -0.000002 0.000000 0.000000 0.161555 56.401414 7.127109 17.017686 -0.100000 -0.000000 -0.000000 0.000004 0.000001 -0.000001 -0.123584 -0.000000 0.000000 -30.945593 4.793030 62.469566 -0.229562 -0.000000 0.000000 0.000003 0.000005 31.073915 -0.160834 -0.000000 0.000000 0.000002 -0.000001 0.000000 -0.100000 -0.000000 0.000000 0.000001 0.000000 0.000000 -0.107972 0.000000 0.000000 -40.192897 15.086646 -4.021035 0.000000 -0.000000 -0.351231 64.278159 8.079398 13.932287 0.000000 0.000000 -0.469094 -0.000001 -0.000000 -0.000000 
0.000000 0.000000 0.000000 13.821218 -2.174547 -0.000000 0.100000 0.000000 -0.000000 -0.000001 -0.000000 -0.000000 0.107972 0.000000 -0.000000 -80.977828 -5.295601 6.679370 0.000000 0.000000 -0.351231 112.963228 14.952589 -3.376127 0.000000 -0.000000 -0.469094 0.000001 0.000001 -0.000001 -0.000000 0.000000 0.100000 -0.000001 0.000000 -0.000000 0.000000 0.000000 0.194444 4.264835 -30.510701 -0.192080 -0.000000 -0.000000 0.227222 0.000000 -0.000010 16.574024 0.100000 -0.000000 0.000000 0.000001 0.000003 -0.000002 0.123584 0.000000 0.000000 -59.245518 28.293809 10.173473 0.229562 -0.000000 0.000000 -0.000005 0.000003 -35.469309 0.160834 0.000000 0.000000 0.000001 -0.000001 0.000001 0.000000 -0.000000 0.100000 0.000000 0.000003 -0.000002 0.000000 0.000000 0.161555 56.780442 6.924316 17.693918 -0.100000 -0.000000 -0.000000 0.000001 0.000003 -0.000002 -0.123584 -0.000000 0.000000 -31.136517 4.890734 62.796527 -0.229562 -0.000000 -0.000000 -0.000000 -0.000000 31.085202 -0.160834 -0.000000 -0.000000 0.000001 0.000001 -0.000001 -0.100000 0.000000 0.000000 -0.000001 -0.000000 -0.000000 -0.107972 0.000000 0.000000 -39.674212 15.604906 -3.908540 -0.000000 -0.000000 -0.351231 63.811917 7.346524 14.240780 0.000000 -0.000000 -0.469094 0.000000 -0.000001 0.000001 
0.000000 0.000000 0.000000 13.840494 -2.231656 0.000002 0.100000 0.000000 -0.000000 -0.000000 -0.000000 -0.000000 0.107972 0.000000 -0.000000 -80.659172 -5.461119 6.641842 -0.000000 0.000000 -0.351231 112.780698 14.830883 -3.574034 0.000000 -0.000000 -0.469094 0.000002 0.000002 0.000000 -0.000000 0.000000 0.100000 -0.000000 -0.000000 -0.000000 0.000000 0.000000 0.194444 4.484940 -30.434234 -0.207228 -0.000000 -0.000000 0.227222 0.000001 -0.000003 16.501139 0.100000 -0.000000 -0.000000 0.000001 0.000001 0.000000 0.123584 0.000000 0.000000 -58.115430 27.978559 9.618581 0.229562 -0.000000 -0.000000 0.000001 0.000002 -36.183293 0.160834 0.000000 -0.000000 0.000001 0.000001 -0.000005 -0.000000 -0.000000 0.100000 0.000003 0.000001 0.000001 0.000000 0.000000 0.161555 57.262469 6.745882 18.365743 -0.100000 -0.000000 0.000000 0.000001 0.000001 0.000000 -0.123584 0.000000 0.000000 -31.304444 5.029306 63.180220 -0.229562 -0.000000 0.000000 0.000002 -0.000001 31.114305 -0.160834 -0.000000 -0.000000 0.000004 0.000000 -0.000001 -0.100000 -0.000000 0.000000 -0.000000 -0.000000 -0.000000 -0.107972 0.000000 0.000000 -39.260590 16.095406 -3.799002 0.000000 -0.000000 -0.351231 63.437854 6.670862 14.528229 -0.000000 -0.000000 -0.469094 -0.000001 0.000001 -0.000000 
0.000000 0.000000 0.000000 13.819980 -2.299892 -0.000001 0.100000 0.000000 -0.000000 -0.000001 -0.000000 0.000000 0.107972 0.000000 -0.000000 -80.344485 -5.613339 6.610729 0.000000 0.000000 -0.351231 112.517552 14.716681 -3.750398 0.000000 0.000000 -0.469094 -0.000001 0.000001 0.000001 -0.000000 -0.000000 0.100000 -0.000001 -0.000000 0.000000 0.000000 0.000000 0.194444 4.723502 -30.360041 -0.224878 -0.000000 0.000000 0.227222 0.000001 0.000007 16.406432 0.100000 0.000000 -0.000000 -0.000000 0.000000 -0.000001 0.123584 0.000000 -0.000000 -56.868401 27.685369 9.028226 0.229562 -0.000000 0.000000 0.000004 0.000002 -36.941870 0.160834 0.000000 0.000000 -0.000001 -0.000000 -0.000005 -0.000000 -0.000000 0.100000 -0.000001 -0.000005 0.000000 0.000000 0.000000 0.161555 57.850889 6.606889 19.035179 -0.100000 0.000000 0.000000 -0.000000 0.000000 -0.000001 -0.123584 0.000000 0.000000 -31.463338 5.192286 63.640144 -0.229562 -0.000000 0.000000 0.000003 0.000002 31.155368 -0.160834 -0.000000 -0.000000 0.000003 0.000001 0.000000 -0.100000 -0.000000 0.000000 -0.000001 -0.000000 0.000000 -0.107972 0.000000 0.000000 -38.921618 16.568579 -3.688444 0.000000 0.000000 -0.351231 63.131001 6.029855 14.780277 -0.000000 -0.000000 -0.469094 -0.000001 -0.000000 -0.000000 
0.000000 0.000000 0.000000 13.763427 -2.377592 0.000003 0.100000 -0.000000 -0.000000 0.000001 -0.000000 0.000000 0.107972 0.000000 -0.000000 -80.046416 -5.748795 6.586148 0.000000 0.000000 -0.351231 112.173638 14.602591 -3.908662 0.000000 0.000000 -0.469094 0.000001 0.000001 0.000000 0.000000 0.000000 0.100000 0.000001 -0.000000 0.000000 0.000000 0.000000 0.194444 4.971877 -30.293426 -0.244693 0.000000 0.000000 0.227222 -0.000002 0.000000 16.287421 0.100000 -0.000000 -0.000000 0.000002 0.000004 0.000000 0.123584 0.000000 0.000000 -55.584923 27.434964 8.450724 0.229562 -0.000000 0.000000 0.000002 0.000001 -37.710236 0.160834 0.000000 0.000000 0.000000 -0.000000 -0.000002 -0.000000 0.000000 0.100000 -0.000000 0.000001 0.000000 0.000000 0.000000 0.161555 58.526969 6.526019 19.667443 -0.100000 -0.000000 0.000000 0.000002 0.000004 -0.000000 -0.123584 -0.000000 0.000000 -31.615566 5.370505 64.174347 -0.229562 -0.000000 -0.000000 0.000001 -0.000003 31.195916 -0.160834 -0.000000 0.000000 -0.000001 0.000000 0.000001 -0.100000 0.000000 0.000000 0.000001 -0.000000 0.000000 -0.107972 0.000000 0.000000 -38.640784 17.008447 -3.573723 0.000000 -0.000000 -0.351231 62.865963 5.418013 14.990477 -0.000000 -0.000000 -0.469094 -0.000003 -0.000001 0.000000 
0.000000 0.000000 0.000000 13.660510 -2.473661 -0.000001 0.100000 0.000000 0.000000 -0.000002 0.000000 0.000000 0.107972 0.000000 -0.000000 -79.750040 -5.870178 6.571748 0.000000 0.000000 -0.351231 111.734361 14.473591 -4.050324 0.000000 0.000000 -0.469094 0.000004 0.000001 0.000001 0.000000 0.000000 0.100000 -0.000002 0.000000 0.000000 0.000000 0.000000 0.194444 5.241691 -30.233798 -0.268457 -0.000000 -0.000000 0.227222 0.000000 -0.000003 16.127200 0.100000 -0.000000 0.000000 0.000001 0.000006 -0.000002 0.123584 0.000000 0.000000 -54.198074 27.243804 7.871467 0.229562 -0.000000 0.000000 0.000008 -0.000000 -38.506551 0.160834 0.000000 0.000000 0.000002 0.000003 -0.000006 0.000000 -0.000000 0.100000 -0.000000 0.000000 -0.000001 0.000000 0.000000 0.161555 59.312058 6.516934 20.274272 -0.100000 0.000000 0.000000 0.000001 0.000006 -0.000001 -0.123584 0.000000 0.000000 -31.769539 5.556301 64.816248 -0.229562 -0.000000 0.000000 0.000006 -0.000001 31.225152 -0.160834 0.000000 0.000000 0.000003 0.000000 -0.000001 -0.100000 -0.000000 -0.000000 -0.000002 0.000000 0.000000 -0.107972 0.000000 0.000000 -38.381644 17.434024 -3.447902 0.000000 -0.000000 -0.351231 62.609940 4.796126 15.159765 -0.000000 -0.000000 -0.469094 -0.000001 -0.000001 0.000001 
